<mxfile host="app.diagrams.net" modified="2024-03-07T14:20:23.079Z" agent="Mozilla/5.0 (Windows NT 10.0; Win64; x64) AppleWebKit/537.36 (KHTML, like Gecko) Chrome/122.0.0.0 Safari/537.36" etag="msAVpUBkpZEtmvsjarfs" version="24.0.1" type="device">
  <diagram name="Страница — 1" id="Cwb3SCZ8Rxvwu3u4Bjnd">
    <mxGraphModel dx="2203" dy="734" grid="1" gridSize="10" guides="1" tooltips="1" connect="1" arrows="1" fold="1" page="1" pageScale="1" pageWidth="1169" pageHeight="827" math="0" shadow="0">
      <root>
        <mxCell id="0" />
        <mxCell id="1" parent="0" />
        <mxCell id="tMUXdsO-rBo7WwKFKJ0n-12" style="edgeStyle=orthogonalEdgeStyle;rounded=0;orthogonalLoop=1;jettySize=auto;html=1;exitX=0;exitY=0;exitDx=0;exitDy=0;entryX=1;entryY=0;entryDx=0;entryDy=0;" parent="1" source="tMUXdsO-rBo7WwKFKJ0n-1" target="tMUXdsO-rBo7WwKFKJ0n-6" edge="1">
          <mxGeometry relative="1" as="geometry">
            <Array as="points">
              <mxPoint x="652" y="60" />
              <mxPoint x="268" y="60" />
            </Array>
          </mxGeometry>
        </mxCell>
        <mxCell id="tMUXdsO-rBo7WwKFKJ0n-13" value="&lt;font size=&quot;1&quot;&gt;&lt;b&gt;&lt;i style=&quot;font-size: 12px;&quot;&gt;x&lt;/i&gt;&lt;i style=&quot;&quot;&gt;1 / y5. y6&lt;/i&gt;&lt;/b&gt;&lt;/font&gt;" style="edgeLabel;html=1;align=center;verticalAlign=middle;resizable=0;points=[];" parent="tMUXdsO-rBo7WwKFKJ0n-12" vertex="1" connectable="0">
          <mxGeometry x="0.0841" y="-2" relative="1" as="geometry">
            <mxPoint y="-8" as="offset" />
          </mxGeometry>
        </mxCell>
        <mxCell id="tMUXdsO-rBo7WwKFKJ0n-14" style="rounded=0;orthogonalLoop=1;jettySize=auto;html=1;exitX=1;exitY=1;exitDx=0;exitDy=0;entryX=0;entryY=0;entryDx=0;entryDy=0;" parent="1" source="tMUXdsO-rBo7WwKFKJ0n-1" target="tMUXdsO-rBo7WwKFKJ0n-2" edge="1">
          <mxGeometry relative="1" as="geometry" />
        </mxCell>
        <mxCell id="tMUXdsO-rBo7WwKFKJ0n-15" value="!x1 / y7" style="edgeLabel;html=1;align=center;verticalAlign=middle;resizable=0;points=[];fontStyle=3;fontSize=13;rotation=30;" parent="tMUXdsO-rBo7WwKFKJ0n-14" vertex="1" connectable="0">
          <mxGeometry x="0.1147" y="3" relative="1" as="geometry">
            <mxPoint x="5" y="-8" as="offset" />
          </mxGeometry>
        </mxCell>
        <mxCell id="tMUXdsO-rBo7WwKFKJ0n-1" value="&lt;i&gt;&lt;b&gt;&lt;font color=&quot;#ff0000&quot; style=&quot;font-size: 13px;&quot;&gt;S1&lt;/font&gt;&lt;/b&gt;&lt;/i&gt;" style="ellipse;whiteSpace=wrap;html=1;aspect=fixed;" parent="1" vertex="1">
          <mxGeometry x="640" y="110" width="80" height="80" as="geometry" />
        </mxCell>
        <mxCell id="tMUXdsO-rBo7WwKFKJ0n-16" style="rounded=0;orthogonalLoop=1;jettySize=auto;html=1;exitX=0;exitY=0.5;exitDx=0;exitDy=0;entryX=1;entryY=1;entryDx=0;entryDy=0;" parent="1" source="tMUXdsO-rBo7WwKFKJ0n-2" target="tMUXdsO-rBo7WwKFKJ0n-6" edge="1">
          <mxGeometry relative="1" as="geometry" />
        </mxCell>
        <mxCell id="tMUXdsO-rBo7WwKFKJ0n-17" value="&lt;b&gt;&lt;i&gt;&lt;font style=&quot;font-size: 13px;&quot;&gt;x2 / y8, y6&lt;/font&gt;&lt;/i&gt;&lt;/b&gt;" style="edgeLabel;html=1;align=center;verticalAlign=middle;resizable=0;points=[];rotation=15;" parent="tMUXdsO-rBo7WwKFKJ0n-16" vertex="1" connectable="0">
          <mxGeometry x="-0.1276" y="-2" relative="1" as="geometry">
            <mxPoint x="3" y="-15" as="offset" />
          </mxGeometry>
        </mxCell>
        <mxCell id="tMUXdsO-rBo7WwKFKJ0n-19" style="rounded=0;orthogonalLoop=1;jettySize=auto;html=1;exitX=0;exitY=1;exitDx=0;exitDy=0;entryX=0.5;entryY=1;entryDx=0;entryDy=0;" parent="1" source="tMUXdsO-rBo7WwKFKJ0n-2" target="tMUXdsO-rBo7WwKFKJ0n-6" edge="1">
          <mxGeometry relative="1" as="geometry" />
        </mxCell>
        <mxCell id="tMUXdsO-rBo7WwKFKJ0n-20" value="&lt;b&gt;&lt;i&gt;&lt;font style=&quot;font-size: 13px;&quot;&gt;!x2x3 / y9, y6&lt;/font&gt;&lt;/i&gt;&lt;/b&gt;" style="edgeLabel;html=1;align=center;verticalAlign=middle;resizable=0;points=[];rotation=15;" parent="tMUXdsO-rBo7WwKFKJ0n-19" vertex="1" connectable="0">
          <mxGeometry x="-0.086" y="3" relative="1" as="geometry">
            <mxPoint y="12" as="offset" />
          </mxGeometry>
        </mxCell>
        <mxCell id="tMUXdsO-rBo7WwKFKJ0n-21" style="edgeStyle=orthogonalEdgeStyle;rounded=0;orthogonalLoop=1;jettySize=auto;html=1;" parent="1" source="tMUXdsO-rBo7WwKFKJ0n-2" target="tMUXdsO-rBo7WwKFKJ0n-3" edge="1">
          <mxGeometry relative="1" as="geometry" />
        </mxCell>
        <mxCell id="tMUXdsO-rBo7WwKFKJ0n-22" value="&lt;b&gt;&lt;i&gt;&lt;font style=&quot;font-size: 13px;&quot;&gt;!x2!x3 / y10, y11&lt;/font&gt;&lt;/i&gt;&lt;/b&gt;" style="edgeLabel;html=1;align=center;verticalAlign=middle;resizable=0;points=[];" parent="tMUXdsO-rBo7WwKFKJ0n-21" vertex="1" connectable="0">
          <mxGeometry x="-0.0046" y="1" relative="1" as="geometry">
            <mxPoint as="offset" />
          </mxGeometry>
        </mxCell>
        <mxCell id="tMUXdsO-rBo7WwKFKJ0n-2" value="&lt;i&gt;&lt;b&gt;&lt;font color=&quot;#ff0000&quot; style=&quot;font-size: 13px;&quot;&gt;S2&lt;/font&gt;&lt;/b&gt;&lt;/i&gt;" style="ellipse;whiteSpace=wrap;html=1;aspect=fixed;" parent="1" vertex="1">
          <mxGeometry x="850" y="260" width="80" height="80" as="geometry" />
        </mxCell>
        <mxCell id="tMUXdsO-rBo7WwKFKJ0n-26" style="rounded=0;orthogonalLoop=1;jettySize=auto;html=1;exitX=0;exitY=1;exitDx=0;exitDy=0;entryX=0;entryY=1;entryDx=0;entryDy=0;edgeStyle=isometricEdgeStyle;" parent="1" source="tMUXdsO-rBo7WwKFKJ0n-3" target="tMUXdsO-rBo7WwKFKJ0n-6" edge="1">
          <mxGeometry relative="1" as="geometry">
            <Array as="points">
              <mxPoint x="510" y="470" />
            </Array>
          </mxGeometry>
        </mxCell>
        <mxCell id="tMUXdsO-rBo7WwKFKJ0n-27" value="&lt;b&gt;&lt;i&gt;&lt;font style=&quot;font-size: 13px;&quot;&gt;!x4!x5!x7 / __&lt;/font&gt;&lt;/i&gt;&lt;/b&gt;" style="edgeLabel;html=1;align=center;verticalAlign=middle;resizable=0;points=[];rotation=30;" parent="tMUXdsO-rBo7WwKFKJ0n-26" vertex="1" connectable="0">
          <mxGeometry x="-0.1728" y="2" relative="1" as="geometry">
            <mxPoint x="13" y="-10" as="offset" />
          </mxGeometry>
        </mxCell>
        <mxCell id="tMUXdsO-rBo7WwKFKJ0n-28" style="rounded=0;orthogonalLoop=1;jettySize=auto;html=1;exitX=0.5;exitY=1;exitDx=0;exitDy=0;entryX=1;entryY=0;entryDx=0;entryDy=0;" parent="1" source="tMUXdsO-rBo7WwKFKJ0n-3" target="tMUXdsO-rBo7WwKFKJ0n-4" edge="1">
          <mxGeometry relative="1" as="geometry" />
        </mxCell>
        <mxCell id="tMUXdsO-rBo7WwKFKJ0n-29" value="&lt;b&gt;&lt;i&gt;&lt;font style=&quot;font-size: 13px;&quot;&gt;!x4x5 / y13&lt;/font&gt;&lt;/i&gt;&lt;/b&gt;" style="edgeLabel;html=1;align=center;verticalAlign=middle;resizable=0;points=[];rotation=-35;" parent="tMUXdsO-rBo7WwKFKJ0n-28" vertex="1" connectable="0">
          <mxGeometry x="0.1257" y="-2" relative="1" as="geometry">
            <mxPoint x="-26" y="3" as="offset" />
          </mxGeometry>
        </mxCell>
        <mxCell id="tMUXdsO-rBo7WwKFKJ0n-30" style="edgeStyle=orthogonalEdgeStyle;rounded=0;orthogonalLoop=1;jettySize=auto;html=1;exitX=0;exitY=0.5;exitDx=0;exitDy=0;entryX=1;entryY=0.5;entryDx=0;entryDy=0;" parent="1" source="tMUXdsO-rBo7WwKFKJ0n-3" target="tMUXdsO-rBo7WwKFKJ0n-7" edge="1">
          <mxGeometry relative="1" as="geometry" />
        </mxCell>
        <mxCell id="tMUXdsO-rBo7WwKFKJ0n-32" value="&lt;b&gt;&lt;i&gt;&lt;font style=&quot;font-size: 13px;&quot;&gt;!x4!x5x7 / y15&lt;/font&gt;&lt;/i&gt;&lt;/b&gt;" style="edgeLabel;html=1;align=center;verticalAlign=middle;resizable=0;points=[];" parent="tMUXdsO-rBo7WwKFKJ0n-30" vertex="1" connectable="0">
          <mxGeometry x="0.1038" y="-3" relative="1" as="geometry">
            <mxPoint y="-7" as="offset" />
          </mxGeometry>
        </mxCell>
        <mxCell id="tMUXdsO-rBo7WwKFKJ0n-3" value="&lt;i&gt;&lt;b&gt;&lt;font color=&quot;#ff0000&quot; style=&quot;font-size: 13px;&quot;&gt;S3&lt;/font&gt;&lt;/b&gt;&lt;/i&gt;" style="ellipse;whiteSpace=wrap;html=1;aspect=fixed;" parent="1" vertex="1">
          <mxGeometry x="850" y="570" width="80" height="80" as="geometry" />
        </mxCell>
        <mxCell id="tMUXdsO-rBo7WwKFKJ0n-33" style="edgeStyle=orthogonalEdgeStyle;rounded=0;orthogonalLoop=1;jettySize=auto;html=1;exitX=0;exitY=0.5;exitDx=0;exitDy=0;entryX=1;entryY=0.5;entryDx=0;entryDy=0;" parent="1" source="tMUXdsO-rBo7WwKFKJ0n-4" target="tMUXdsO-rBo7WwKFKJ0n-5" edge="1">
          <mxGeometry relative="1" as="geometry" />
        </mxCell>
        <mxCell id="tMUXdsO-rBo7WwKFKJ0n-34" value="&lt;b&gt;&lt;i&gt;&lt;font style=&quot;font-size: 13px;&quot;&gt;x6 / y14&lt;/font&gt;&lt;/i&gt;&lt;/b&gt;" style="edgeLabel;html=1;align=center;verticalAlign=middle;resizable=0;points=[];" parent="tMUXdsO-rBo7WwKFKJ0n-33" vertex="1" connectable="0">
          <mxGeometry x="0.0353" y="-3" relative="1" as="geometry">
            <mxPoint y="-7" as="offset" />
          </mxGeometry>
        </mxCell>
        <mxCell id="tMUXdsO-rBo7WwKFKJ0n-35" style="edgeStyle=orthogonalEdgeStyle;rounded=0;orthogonalLoop=1;jettySize=auto;html=1;exitX=0;exitY=1;exitDx=0;exitDy=0;entryX=1;entryY=1;entryDx=0;entryDy=0;" parent="1" source="tMUXdsO-rBo7WwKFKJ0n-4" target="tMUXdsO-rBo7WwKFKJ0n-5" edge="1">
          <mxGeometry relative="1" as="geometry" />
        </mxCell>
        <mxCell id="tMUXdsO-rBo7WwKFKJ0n-37" value="&lt;b&gt;&lt;i&gt;&lt;font style=&quot;font-size: 13px;&quot;&gt;!x6 / __&lt;/font&gt;&lt;/i&gt;&lt;/b&gt;" style="edgeLabel;html=1;align=center;verticalAlign=middle;resizable=0;points=[];" parent="tMUXdsO-rBo7WwKFKJ0n-35" vertex="1" connectable="0">
          <mxGeometry x="0.027" y="-3" relative="1" as="geometry">
            <mxPoint y="15" as="offset" />
          </mxGeometry>
        </mxCell>
        <mxCell id="tMUXdsO-rBo7WwKFKJ0n-4" value="&lt;i&gt;&lt;b&gt;&lt;font color=&quot;#ff0000&quot; style=&quot;font-size: 13px;&quot;&gt;S4&lt;/font&gt;&lt;/b&gt;&lt;/i&gt;" style="ellipse;whiteSpace=wrap;html=1;aspect=fixed;" parent="1" vertex="1">
          <mxGeometry x="640" y="760" width="80" height="80" as="geometry" />
        </mxCell>
        <mxCell id="tMUXdsO-rBo7WwKFKJ0n-40" style="edgeStyle=orthogonalEdgeStyle;rounded=0;orthogonalLoop=1;jettySize=auto;html=1;exitX=0.5;exitY=0;exitDx=0;exitDy=0;" parent="1" source="tMUXdsO-rBo7WwKFKJ0n-5" target="tMUXdsO-rBo7WwKFKJ0n-6" edge="1">
          <mxGeometry relative="1" as="geometry" />
        </mxCell>
        <mxCell id="tMUXdsO-rBo7WwKFKJ0n-41" value="&lt;b&gt;&lt;i&gt;&lt;font style=&quot;font-size: 13px;&quot;&gt;1 / y6&lt;/font&gt;&lt;/i&gt;&lt;/b&gt;" style="edgeLabel;html=1;align=center;verticalAlign=middle;resizable=0;points=[];" parent="tMUXdsO-rBo7WwKFKJ0n-40" vertex="1" connectable="0">
          <mxGeometry x="-0.0766" y="-3" relative="1" as="geometry">
            <mxPoint as="offset" />
          </mxGeometry>
        </mxCell>
        <mxCell id="tMUXdsO-rBo7WwKFKJ0n-5" value="&lt;i&gt;&lt;b&gt;&lt;font color=&quot;#ff0000&quot; style=&quot;font-size: 13px;&quot;&gt;S5&lt;/font&gt;&lt;/b&gt;&lt;/i&gt;" style="ellipse;whiteSpace=wrap;html=1;aspect=fixed;" parent="1" vertex="1">
          <mxGeometry x="200" y="760" width="80" height="80" as="geometry" />
        </mxCell>
        <mxCell id="tMUXdsO-rBo7WwKFKJ0n-10" style="edgeStyle=orthogonalEdgeStyle;rounded=0;orthogonalLoop=1;jettySize=auto;html=1;entryX=0;entryY=0.5;entryDx=0;entryDy=0;" parent="1" source="tMUXdsO-rBo7WwKFKJ0n-6" target="tMUXdsO-rBo7WwKFKJ0n-1" edge="1">
          <mxGeometry relative="1" as="geometry" />
        </mxCell>
        <mxCell id="tMUXdsO-rBo7WwKFKJ0n-11" value="&lt;font size=&quot;1&quot;&gt;&lt;b&gt;&lt;i style=&quot;font-size: 12px;&quot;&gt;1&lt;/i&gt;&lt;i style=&quot;&quot;&gt;&amp;nbsp;/ y1, y2, y3, y4&lt;/i&gt;&lt;/b&gt;&lt;/font&gt;" style="edgeLabel;html=1;align=center;verticalAlign=middle;resizable=0;points=[];" parent="tMUXdsO-rBo7WwKFKJ0n-10" vertex="1" connectable="0">
          <mxGeometry x="-0.136" y="1" relative="1" as="geometry">
            <mxPoint y="-9" as="offset" />
          </mxGeometry>
        </mxCell>
        <mxCell id="tMUXdsO-rBo7WwKFKJ0n-6" value="&lt;i&gt;&lt;b&gt;&lt;font color=&quot;#ff0000&quot; style=&quot;font-size: 13px;&quot;&gt;S0&lt;/font&gt;&lt;/b&gt;&lt;/i&gt;" style="ellipse;whiteSpace=wrap;html=1;aspect=fixed;" parent="1" vertex="1">
          <mxGeometry x="200" y="110" width="80" height="80" as="geometry" />
        </mxCell>
        <mxCell id="tMUXdsO-rBo7WwKFKJ0n-44" style="edgeStyle=orthogonalEdgeStyle;rounded=0;orthogonalLoop=1;jettySize=auto;html=1;exitX=0.5;exitY=0;exitDx=0;exitDy=0;entryX=0.5;entryY=1;entryDx=0;entryDy=0;" parent="1" source="tMUXdsO-rBo7WwKFKJ0n-7" target="tMUXdsO-rBo7WwKFKJ0n-8" edge="1">
          <mxGeometry relative="1" as="geometry" />
        </mxCell>
        <mxCell id="tMUXdsO-rBo7WwKFKJ0n-45" value="&lt;b&gt;&lt;i&gt;&lt;font style=&quot;font-size: 13px;&quot;&gt;!x8x9 / y14&lt;/font&gt;&lt;/i&gt;&lt;/b&gt;" style="edgeLabel;html=1;align=center;verticalAlign=middle;resizable=0;points=[];" parent="tMUXdsO-rBo7WwKFKJ0n-44" vertex="1" connectable="0">
          <mxGeometry x="-0.1386" y="2" relative="1" as="geometry">
            <mxPoint x="22" as="offset" />
          </mxGeometry>
        </mxCell>
        <mxCell id="tMUXdsO-rBo7WwKFKJ0n-46" style="edgeStyle=orthogonalEdgeStyle;rounded=0;orthogonalLoop=1;jettySize=auto;html=1;exitX=0;exitY=0;exitDx=0;exitDy=0;entryX=0;entryY=1;entryDx=0;entryDy=0;" parent="1" source="tMUXdsO-rBo7WwKFKJ0n-7" target="tMUXdsO-rBo7WwKFKJ0n-8" edge="1">
          <mxGeometry relative="1" as="geometry" />
        </mxCell>
        <mxCell id="tMUXdsO-rBo7WwKFKJ0n-47" value="&lt;b&gt;&lt;i&gt;&lt;font style=&quot;font-size: 13px;&quot;&gt;!x8!x9 / __&lt;/font&gt;&lt;/i&gt;&lt;/b&gt;" style="edgeLabel;html=1;align=center;verticalAlign=middle;resizable=0;points=[];" parent="tMUXdsO-rBo7WwKFKJ0n-46" vertex="1" connectable="0">
          <mxGeometry x="-0.4415" y="-1" relative="1" as="geometry">
            <mxPoint x="-23" as="offset" />
          </mxGeometry>
        </mxCell>
        <mxCell id="tMUXdsO-rBo7WwKFKJ0n-7" value="&lt;i&gt;&lt;b&gt;&lt;font color=&quot;#ff0000&quot; style=&quot;font-size: 13px;&quot;&gt;S6&lt;/font&gt;&lt;/b&gt;&lt;/i&gt;" style="ellipse;whiteSpace=wrap;html=1;aspect=fixed;" parent="1" vertex="1">
          <mxGeometry x="-10" y="570" width="80" height="80" as="geometry" />
        </mxCell>
        <mxCell id="tMUXdsO-rBo7WwKFKJ0n-48" style="edgeStyle=orthogonalEdgeStyle;rounded=0;orthogonalLoop=1;jettySize=auto;html=1;exitX=0.5;exitY=0;exitDx=0;exitDy=0;entryX=0;entryY=0.5;entryDx=0;entryDy=0;" parent="1" source="tMUXdsO-rBo7WwKFKJ0n-8" target="tMUXdsO-rBo7WwKFKJ0n-6" edge="1">
          <mxGeometry relative="1" as="geometry" />
        </mxCell>
        <mxCell id="tMUXdsO-rBo7WwKFKJ0n-49" value="&lt;b&gt;&lt;i&gt;&lt;font style=&quot;font-size: 13px;&quot;&gt;1 / y6&lt;/font&gt;&lt;/i&gt;&lt;/b&gt;" style="edgeLabel;html=1;align=center;verticalAlign=middle;resizable=0;points=[];" parent="tMUXdsO-rBo7WwKFKJ0n-48" vertex="1" connectable="0">
          <mxGeometry x="0.1647" y="3" relative="1" as="geometry">
            <mxPoint y="-17" as="offset" />
          </mxGeometry>
        </mxCell>
        <mxCell id="tMUXdsO-rBo7WwKFKJ0n-8" value="&lt;i&gt;&lt;b&gt;&lt;font color=&quot;#ff0000&quot; style=&quot;font-size: 13px;&quot;&gt;S7&lt;/font&gt;&lt;/b&gt;&lt;/i&gt;" style="ellipse;whiteSpace=wrap;html=1;aspect=fixed;" parent="1" vertex="1">
          <mxGeometry x="-10" y="260" width="80" height="80" as="geometry" />
        </mxCell>
        <mxCell id="tMUXdsO-rBo7WwKFKJ0n-24" style="rounded=0;orthogonalLoop=1;jettySize=auto;html=1;exitX=0;exitY=0.5;exitDx=0;exitDy=0;entryX=0.362;entryY=1.012;entryDx=0;entryDy=0;entryPerimeter=0;" parent="1" source="tMUXdsO-rBo7WwKFKJ0n-3" target="tMUXdsO-rBo7WwKFKJ0n-6" edge="1">
          <mxGeometry relative="1" as="geometry" />
        </mxCell>
        <mxCell id="tMUXdsO-rBo7WwKFKJ0n-25" value="&lt;b&gt;&lt;i&gt;&lt;font style=&quot;font-size: 13px;&quot;&gt;x4 / y12, y6&lt;/font&gt;&lt;/i&gt;&lt;/b&gt;" style="edgeLabel;html=1;align=center;verticalAlign=middle;resizable=0;points=[];rotation=30;" parent="tMUXdsO-rBo7WwKFKJ0n-24" vertex="1" connectable="0">
          <mxGeometry x="-0.0417" y="-2" relative="1" as="geometry">
            <mxPoint x="6" y="-18" as="offset" />
          </mxGeometry>
        </mxCell>
        <mxCell id="tMUXdsO-rBo7WwKFKJ0n-42" style="rounded=0;orthogonalLoop=1;jettySize=auto;html=1;exitX=1;exitY=0;exitDx=0;exitDy=0;entryX=0.274;entryY=1.026;entryDx=0;entryDy=0;entryPerimeter=0;" parent="1" source="tMUXdsO-rBo7WwKFKJ0n-7" target="tMUXdsO-rBo7WwKFKJ0n-6" edge="1">
          <mxGeometry relative="1" as="geometry" />
        </mxCell>
        <mxCell id="tMUXdsO-rBo7WwKFKJ0n-43" value="&lt;b&gt;&lt;i&gt;&lt;font style=&quot;font-size: 13px;&quot;&gt;x8 / y16, y6&lt;/font&gt;&lt;/i&gt;&lt;/b&gt;" style="edgeLabel;html=1;align=center;verticalAlign=middle;resizable=0;points=[];" parent="tMUXdsO-rBo7WwKFKJ0n-42" vertex="1" connectable="0">
          <mxGeometry x="-0.319" y="4" relative="1" as="geometry">
            <mxPoint as="offset" />
          </mxGeometry>
        </mxCell>
      </root>
    </mxGraphModel>
  </diagram>
</mxfile>
